{
	"meshes":[{
		"primitives":[{
			"attributes":{
				"POSITION":1,
				"NORMAL":2,
				"TEXCOORD_0":3
			},
			"indices":0
		}],
		"name":"Tramplin"
	}],
	"nodes":[{
		"name":"Tramplin",
		"translation":[200.0,
		-1.4210854715202005e-14,
		0.0],
		"rotation":[-0.5,
		-0.5,
		0.5,
		-0.5],
		"scale":[1.0,
		1.0,
		1.0],
		"mesh":0
	}],
	"asset":{
		"version":"2.0",
		"generator":"Created using the official Cinema 4D glTF Exporter 1.000x284978"
	},
	"scenes":[{
		"nodes":[0]
	}],
	"accessors":[{
		"bufferView":0,
		"type":"SCALAR",
		"componentType":5123,
		"count":312,
		"byteOffset":0,
		"min":[0],
		"max":[101]
	},
	{
		"bufferView":1,
		"type":"VEC3",
		"componentType":5126,
		"count":102,
		"byteOffset":0,
		"min":[-1.2500124294489122e-14,
		-200.0,
		-177.31594848632813],
		"max":[723.892333984375,
		-4.973799150320701e-14,
		638.4398193359375]
	},
	{
		"bufferView":1,
		"type":"VEC3",
		"componentType":5126,
		"count":102,
		"byteOffset":12,
		"min":[-1.0,
		-1.0,
		-0.9963932037353516],
		"max":[1.0,
		1.0,
		6.041472554807546e-16]
	},
	{
		"bufferView":1,
		"type":"VEC2",
		"componentType":5126,
		"count":102,
		"byteOffset":24,
		"min":[0.0,
		-0.08863011002540589],
		"max":[1.0,
		1.0]
	}],
	"bufferViews":[{
		"buffer":0,
		"byteOffset":0,
		"byteLength":624,
		"target":34963
	},
	{
		"buffer":0,
		"byteOffset":624,
		"byteLength":3264,
		"target":34962,
		"byteStride":32
	}],
	"buffers":[{
		"uri":"data:application/octet-stream;base64,",
		"byteLength":3888
	}]
}